# xmcd
#
# Track frame offsets: 
#        150
#        19347
#        36662
#        51122
#        75020
#        93400
#        114002
#        131575
#        159307
#        177622
#
# Disc length: 2561 seconds
#
# Revision: 3
# Processed by: cddbd v1.5.2PL0 Copyright (c) Steve Scherf et al.
# Submitted via: ExactAudioCopy v0.99pb5
#
DISCID=7509ff0a
DTITLE=Son Seals - Bad Axe
DYEAR=1984
DGENRE=Blues
TTITLE0=Don't Pick Me For Your Fool
TTITLE1=Going Home (Where The Women Got Meat On Their Bones)
TTITLE2=Just About To Lose Your Clown
TTITLE3=Friday Again
TTITLE4=Cold Blood
TTITLE5=Out Of My Way
TTITLE6=I Think You're Fooling Me
TTITLE7=I Can Count On My Blues
TTITLE8=Can't Stand To See Her Cry
TTITLE9=Person To Person
EXTD=
EXTT0=
EXTT1=
EXTT2=
EXTT3=
EXTT4=
EXTT5=
EXTT6=
EXTT7=
EXTT8=
EXTT9=
PLAYORDER=
